PathFileType  4	(X/Y/Z) C:\Users\antoi\Documents\MyRepositories\mobilecap\ResultsAnalysis
DataRate	CameraRate	NumFrames	NumMarkers	Units	OrigDataRate	OrigDataStartFrame	OrigNumFrames
100.0	100.0	7	51	mm	100.0	995	1137
Frame#	Time	r_knee			r_shank_antsup			r_ankle			r_calc			r_5meta			r_toe			L_knee			L_shank_antsup			L_ankle			L_calc			L_5meta			L_toe			r_sh2			r_sh3			r_sh4			L_sh2			L_sh3			r_thigh1			r_thigh2			r_thigh3			r_thigh4			r_thigh5			L_thigh1			L_thigh2			L_thigh3			L_thigh4			r.ASIS			r.PSIS			L.ASIS			L.PSIS			C7			R_Shoulder			L_Shoulder			R_Sternum			L_Sternum			R_humerus			R_elbow_med			R_elbow_lat			R_forearm			R_wrist_radius			R_wrist_ulna			L_humerus			L_elbow_med			L_elbow_lat			L_forearm			L_wrist_radius			L_wrist_ulna			R_HJC			L_HJC			R_HJC_reg			L_HJC_reg			
		X1	Y1	Z1	X2	Y2	Z2	X3	Y3	Z3	X4	Y4	Z4	X5	Y5	Z5	X6	Y6	Z6	X7	Y7	Z7	X8	Y8	Z8	X9	Y9	Z9	X10	Y10	Z10	X11	Y11	Z11	X12	Y12	Z12	X13	Y13	Z13	X14	Y14	Z14	X15	Y15	Z15	X16	Y16	Z16	X17	Y17	Z17	X18	Y18	Z18	X19	Y19	Z19	X20	Y20	Z20	X21	Y21	Z21	X22	Y22	Z22	X23	Y23	Z23	X24	Y24	Z24	X25	Y25	Z25	X26	Y26	Z26	X27	Y27	Z27	X28	Y28	Z28	X29	Y29	Z29	X30	Y30	Z30	X31	Y31	Z31	X32	Y32	Z32	X33	Y33	Z33	X34	Y34	Z34	X35	Y35	Z35	X36	Y36	Z36	X37	Y37	Z37	X38	Y38	Z38	X39	Y39	Z39	X40	Y40	Z40	X41	Y41	Z41	X42	Y42	Z42	X43	Y43	Z43	X44	Y44	Z44	X45	Y45	Z45	X46	Y46	Z46	X47	Y47	Z47	X48	Y48	Z48	X49	Y49	Z49	X50	Y50	Z50	X51	Y51	Z51	

995	9.94000000	-258.14678	481.55135	-381.48787	-225.54917	370.89973	-383.48489	-300.12713	93.30663	-387.87365	-340.99105	52.88265	-441.21978	-190.25172	39.48950	-339.03021	-149.17775	56.55155	-378.10964	-239.34538	480.69335	-780.36764	-206.52349	376.08894	-749.54869	-304.63666	94.82037	-793.69565	-347.83349	52.71002	-742.69068	-186.28786	36.56582	-819.06636	-145.58116	55.07924	-767.35378	-234.70074	258.78295	-386.39873	-288.10523	372.91760	-340.07722	-311.65371	263.82265	-356.58528	-258.63520	405.34282	-815.70830	-276.09835	286.34349	-834.43484	-157.15257	782.60356	-409.31227	-157.10084	675.30674	-394.67139	-207.16861	652.30889	-357.36538	-265.45981	782.45397	-377.62450	-260.63642	667.87556	-362.93528	-160.36133	772.71464	-767.71234	-152.65810	637.20222	-773.53789	-268.84115	777.69575	-796.53714	-260.19117	637.12293	-799.98272	-148.11809	945.19553	-455.94838	-328.43719	981.61390	-535.23390	-135.76354	948.82932	-704.07754	-327.16325	981.68370	-650.34429	-276.24818	1437.48481	-585.50518	-233.35526	1419.13122	-437.93775	-217.06753	1423.04590	-735.78132	-151.40370	1388.09350	-563.05196	-148.60268	1384.02875	-605.96511	-251.00960	1308.26602	-356.18858	-368.60958	1123.03248	-385.84303	-339.19075	1146.54073	-311.02384	-217.60088	1144.03182	-338.77425	-127.95417	1157.36660	-384.59106	-119.90750	1124.56780	-367.87992	-237.19302	1285.83298	-818.02324	-336.16118	1110.03099	-772.80753	-332.41040	1125.05045	-853.97658	-224.55582	1123.67125	-848.05479	-107.95395	1135.89626	-798.62967	-102.53839	1107.06046	-812.60873	-233.34971	870.47058	-488.98584	-219.18464	869.25232	-677.82915	-214.03360	874.08952	-491.55747	-212.21850	874.18873	-655.53287	
996	9.95000000	-258.15936	481.08108	-381.83744	-225.23311	370.78654	-383.89128	-299.95140	93.35023	-387.87644	-340.93138	52.92063	-441.25167	-190.23823	39.52982	-339.07204	-149.15130	56.54137	-378.18613	-238.67307	480.50462	-780.64197	-205.94636	375.67845	-749.15904	-304.55966	94.76364	-793.65190	-347.83434	52.68948	-742.66970	-186.28789	36.59396	-819.04533	-145.63859	55.07709	-767.23933	-234.39171	258.59244	-386.88415	-287.59790	372.65840	-340.56714	-310.97586	263.65246	-356.87711	-257.85718	404.98049	-815.36287	-275.50606	286.04781	-834.27529	-159.19851	782.69702	-409.88415	-158.41259	675.20021	-395.07493	-208.43238	652.08219	-357.37484	-267.54665	782.13227	-377.44771	-261.98556	667.51088	-362.92654	-162.20380	772.75803	-767.72585	-153.40931	637.17466	-773.46016	-270.45035	776.87423	-797.01069	-260.90372	636.39332	-800.22537	-150.29767	944.83897	-456.37616	-330.36527	982.43045	-535.33763	-138.10866	948.55196	-704.23694	-329.20742	982.48562	-650.53936	-274.87971	1438.13414	-585.45869	-231.95750	1419.38767	-437.97559	-215.85884	1423.37283	-735.69399	-150.30777	1388.05447	-563.15623	-147.51490	1383.91088	-605.81875	-250.05504	1308.54775	-356.36279	-368.35223	1123.85750	-385.46592	-338.61579	1147.16958	-310.60934	-217.15486	1144.27756	-338.86602	-127.60185	1157.31462	-384.96570	-119.62385	1124.50664	-368.27294	-236.25140	1286.47654	-818.10034	-335.49779	1110.49538	-773.52758	-331.44682	1125.52966	-854.21124	-223.68548	1124.13386	-848.09757	-107.16411	1136.11451	-797.94889	-101.84097	1107.28502	-812.09438	-235.97791	870.66046	-489.25505	-221.95419	869.45033	-678.10894	-216.65548	874.33548	-491.86267	-215.00833	874.41375	-655.65815	
997	9.96000000	-258.12943	480.61558	-382.24718	-224.84659	370.80559	-384.05766	-299.66504	93.43945	-387.78601	-340.91362	52.91901	-441.25433	-190.24102	39.60441	-339.12260	-149.14140	56.55993	-378.25861	-237.92601	480.34816	-781.14702	-205.31681	375.16669	-748.81420	-304.46990	94.66920	-793.64817	-347.86561	52.62686	-742.72492	-186.29262	36.59584	-819.02411	-145.67011	55.05206	-767.16876	-234.14534	258.42308	-387.26547	-287.07869	372.45564	-340.90795	-310.52492	263.61024	-357.14332	-257.08558	404.58693	-814.91926	-274.81989	285.92073	-834.15654	-161.49944	782.78775	-410.42455	-159.89347	675.11166	-395.53860	-209.61937	651.97845	-357.10739	-269.79881	781.62843	-377.40154	-263.42909	666.91325	-362.95763	-164.14152	772.66145	-767.58477	-154.16892	637.19259	-773.46375	-272.18253	775.92303	-797.55448	-261.61442	635.52098	-800.43946	-152.75954	944.44875	-456.64528	-332.43316	983.24601	-535.32020	-140.63333	948.10139	-704.31986	-331.46201	983.31336	-650.75744	-273.38967	1438.71235	-585.41852	-230.37723	1419.54432	-437.99136	-214.63113	1423.67437	-735.67194	-149.15316	1387.93833	-563.28819	-146.38944	1383.75545	-605.81142	-248.96838	1308.75078	-356.61056	-368.03707	1124.65461	-384.99877	-337.92381	1147.71009	-310.24605	-216.66686	1144.45465	-338.87086	-127.16965	1157.26699	-385.31840	-119.28424	1124.36778	-368.65288	-235.14339	1287.05821	-818.32635	-334.77138	1111.08968	-774.21527	-330.31406	1125.93827	-854.63451	-222.65821	1124.51854	-848.28832	-106.32691	1136.31411	-797.23336	-100.99125	1107.42751	-811.44186	-238.89732	870.84721	-489.40232	-224.96929	869.55903	-678.26287	-219.46948	874.45441	-491.99378	-218.09240	874.54968	-655.66656	
998	9.97000000	-258.01310	480.16425	-382.71694	-224.34196	370.62191	-384.45694	-299.36147	93.47292	-387.69121	-340.91008	52.86633	-441.28161	-190.24561	39.69759	-339.21259	-149.13123	56.58548	-378.33864	-237.27538	479.95399	-781.21531	-204.66476	374.65154	-748.52067	-304.37895	94.59778	-793.72053	-347.93676	52.53007	-742.81448	-186.30033	36.57997	-819.01145	-145.67279	55.05226	-767.14212	-233.78899	258.16682	-387.52048	-286.46589	372.35374	-341.01172	-310.21950	263.62305	-357.19000	-256.21378	404.16751	-814.63099	-274.07439	285.73097	-833.96998	-164.04576	782.90504	-410.86522	-161.31105	674.86394	-396.28654	-210.97892	651.87222	-357.28324	-272.11844	781.00943	-377.46206	-264.90192	666.25983	-362.99081	-166.15826	772.43844	-767.39176	-154.98465	637.23749	-773.43775	-274.12743	774.84003	-798.08334	-262.32011	634.57995	-800.61475	-155.35342	943.98920	-456.94053	-334.78994	984.20270	-535.41544	-143.34137	947.51403	-704.39778	-333.89690	984.18062	-650.92473	-271.86032	1439.22350	-585.31656	-228.73126	1419.69754	-437.95111	-213.34633	1423.98430	-735.59882	-147.91969	1387.68343	-563.33791	-145.26802	1383.59069	-605.95944	-247.77651	1309.00950	-356.57553	-367.68031	1125.26866	-384.52836	-337.11227	1148.22721	-309.95853	-216.04417	1144.53471	-338.90781	-126.66354	1157.09181	-385.75647	-118.84037	1124.13813	-369.04200	-234.00253	1287.45448	-818.36189	-334.00573	1111.69333	-774.83785	-329.03815	1126.41326	-855.36802	-221.39197	1124.81736	-848.23466	-105.34826	1136.56036	-796.48458	-99.97803	1107.59132	-810.64077	-242.10174	871.06551	-489.53724	-228.27076	869.62240	-678.40381	-222.63383	874.65622	-492.15473	-221.36969	874.62494	-655.68023	
999	9.98000000	-257.77097	479.70752	-383.21887	-223.70066	370.16142	-385.24408	-299.14726	93.46397	-387.59041	-340.91348	52.80894	-441.32407	-190.25774	39.75531	-339.31780	-149.13456	56.58302	-378.43358	-236.63784	479.38755	-780.85130	-203.87383	374.04528	-748.17996	-304.25784	94.48042	-793.75611	-348.01544	52.40416	-742.93236	-186.31380	36.55725	-819.00671	-145.70642	55.06875	-767.10045	-233.29303	257.86231	-387.78060	-285.61589	372.26692	-341.12168	-309.62973	263.53751	-357.20463	-255.16722	403.65877	-814.41319	-273.39776	285.22124	-833.72825	-166.73885	783.01374	-411.32444	-162.72849	674.59921	-397.06997	-212.54287	651.66595	-357.88929	-274.47939	780.38254	-377.49553	-266.43833	665.73375	-363.04906	-168.32915	772.22152	-767.26060	-155.85842	637.18521	-773.20727	-276.27200	773.59737	-798.34988	-263.00198	633.74205	-801.06895	-158.07368	943.40104	-457.42814	-337.34513	985.35393	-535.66392	-146.34860	946.80837	-704.56936	-336.47472	985.10712	-651.09832	-270.27883	1439.64948	-585.13853	-226.96155	1419.82589	-437.94781	-211.96966	1424.26607	-735.55919	-146.59137	1387.25215	-563.31100	-144.06015	1383.32614	-606.09894	-246.47422	1309.30816	-356.26905	-367.20614	1125.83868	-384.03968	-336.20428	1148.73233	-309.61464	-215.26263	1144.54157	-338.95880	-126.07631	1156.73302	-386.37711	-118.28725	1123.78437	-369.56522	-232.81506	1287.72615	-818.17744	-333.16897	1112.11434	-775.55190	-327.65637	1126.92606	-856.22755	-219.96472	1124.96888	-847.84626	-104.24100	1136.79694	-795.75905	-98.85226	1107.80777	-809.91183	-245.58309	871.30575	-489.77004	-231.93393	869.66426	-678.64806	-226.19075	875.02627	-492.44916	-224.95923	874.67737	-655.75563	
1000	9.99000000	-257.38323	479.26890	-383.62553	-222.85624	369.75718	-385.96867	-299.01584	93.49029	-387.46452	-340.98207	52.74525	-441.30388	-190.27421	39.77192	-339.42650	-149.15538	56.57913	-378.58744	-235.87097	478.84964	-780.49069	-202.81486	373.21477	-747.69012	-304.11524	94.26738	-793.74131	-348.08468	52.24163	-743.06696	-186.33104	36.52348	-819.00733	-145.79510	55.04929	-767.02535	-232.67629	257.49991	-388.20470	-284.51953	372.08534	-341.51006	-308.78657	263.39439	-357.41061	-254.00411	403.03640	-813.98280	-272.71568	284.48823	-833.52867	-169.54272	783.11728	-411.83781	-164.38335	674.59060	-397.60580	-214.10737	651.43635	-358.31868	-277.00959	779.69427	-377.57703	-268.09829	665.20618	-363.20772	-170.73464	772.02630	-767.09146	-156.78556	637.02877	-772.85310	-278.56365	772.29086	-798.50048	-263.79464	632.83063	-801.66251	-161.06824	942.72295	-457.92480	-340.00071	986.56477	-536.03033	-149.64800	945.99161	-704.81302	-339.19913	986.07922	-651.33239	-268.53024	1439.94672	-584.92874	-225.04418	1419.82985	-437.95141	-210.49278	1424.45520	-735.58291	-145.19115	1386.68357	-563.37726	-142.69212	1382.81805	-606.16237	-244.99788	1309.47574	-356.10196	-366.58534	1126.51735	-383.43297	-335.18294	1149.18593	-309.11758	-214.34378	1144.42944	-339.09782	-125.36622	1156.27357	-387.09010	-117.63294	1123.29223	-370.26162	-231.40748	1288.00905	-818.15423	-332.24931	1112.44124	-776.29376	-326.13792	1127.37721	-857.05517	-218.51526	1125.04667	-847.58606	-103.07285	1136.88694	-795.01001	-97.66908	1107.96683	-809.27550	-249.36352	871.54111	-490.05739	-235.88983	869.66828	-678.94590	-230.04271	875.36918	-492.72839	-228.90904	874.68273	-655.85700	
1001	10.00000000	-256.77566	478.83298	-383.91665	-221.70996	369.35840	-386.53220	-298.94286	93.49213	-387.37471	-341.12187	52.67091	-441.21086	-190.27941	39.78436	-339.58154	-149.18616	56.63181	-378.78724	-234.95290	478.29890	-780.20737	-201.51840	372.22653	-747.15521	-304.00347	94.07374	-793.85574	-348.15938	52.02413	-743.11529	-186.35400	36.47125	-819.02176	-145.89166	54.99408	-766.94946	-231.92226	256.97056	-388.75390	-283.19215	371.81668	-342.09724	-307.94327	263.25063	-357.66516	-252.71777	402.33473	-813.37379	-271.84999	283.84295	-833.36385	-172.50626	783.28477	-412.35428	-166.27558	674.86662	-398.00857	-215.62849	651.24488	-358.42819	-279.85777	778.88396	-377.73992	-269.81878	664.50756	-363.35666	-173.34404	771.84193	-766.85795	-157.81380	636.94824	-772.63193	-281.03782	770.98393	-798.74760	-264.82935	631.34295	-801.48912	-164.35551	942.00446	-458.30052	-342.81984	987.67112	-536.32823	-153.10023	945.04301	-705.01207	-342.08924	987.08807	-651.62021	-266.60263	1440.11096	-584.83190	-223.02021	1419.65007	-437.91946	-208.85751	1424.48783	-735.51098	-143.74660	1386.02352	-563.64795	-141.23779	1382.06271	-606.23687	-243.28847	1309.41363	-356.24599	-365.86478	1127.10025	-382.72834	-334.00129	1149.53358	-308.53397	-213.30207	1144.18837	-339.42990	-124.53840	1155.76002	-387.76330	-116.86255	1122.67504	-371.01757	-229.77938	1288.26603	-818.40497	-331.26457	1112.82909	-776.91345	-324.45825	1127.74081	-857.93385	-217.03522	1125.21335	-847.69598	-101.81778	1136.81057	-794.10891	-96.44873	1107.94175	-808.50168	-253.41025	871.73317	-490.29265	-240.03501	869.61223	-679.18587	-234.05840	875.44941	-492.98144	-233.02590	874.62533	-655.98670	
